<?xml version="1.0" encoding="UTF-8"?>
<svg id="Layer_1" data-name="Layer 1" xmlns="http://www.w3.org/2000/svg" viewBox="0 0 107.98 252.91">
  <defs>
    <style>
      .cls-1 {
        fill: #4C1D27;
        stroke: #4C1D27;
        stroke-miterlimit: 10;
      }
    </style>
  </defs>
  <path class="cls-1" d="m103.04,188.66s-9.32,13.41-9.13,18.07,6.61,4.75,8.38-1.3v3.54s-1.3,3.73-5.22,3.63c-3.91-.09-5.59-3.07-5.59-7.08s10.9-16.49,11.55-16.86Z"/>
  <path class="cls-1" d="m101.84,211.76s-3.45,3.45-2.98,6.89,3.91,6.99,3.82,9.87-4,6.89-3.86,11.55,1.93,5.68,1.93,5.68c0,0,5.94,6.06.63,5.68,0,0,6.77,3.96,2.21-4.75-4.57-8.71-1-13.6-1-13.6,0,0,3.82-4.1,1.02-9.78-2.79-5.68-1.96-6.71,2.14-14.44v-12.39s.93-.28.93-6.33v-95.21s-2.7-21.24-15.46-42.01c0,0-1.96-5.31,1.68-5.78s2.79,8.2,2.79,8.2c0,0-.47,5.78,4.56,6.61s6.89-2.79,7.17-5.59-8.01-9.04-5.68-16.58c0,0-1.02,11.74,2.79,15.93s-6.24,7.64-6.33.65.19-13.69-6.43-12.95-2.61,9.69-2.61,9.69c0,0,14.16,24.69,14.72,38.1s.56,28.79.56,28.79l-2.7-23.1s-6.33-32.98-26.46-57.11c0,0-1.86-8.85,2.89-9.32s12.86,3.26,13.97,4.56,10.71,2.33,12.2-3.17,1.02-11.64-7.36-13.88-8.94-5.4-8.57-8.57,7.83-.93,7.83-.56,2.14,3.63-1.58,2.33c0,0,3.91,4.66,4.56.28s-4.64-5.96-8.05-5.78-5.27,2.14-5.09,6.24,9.5,8.29,9.5,8.29c0,0,9.41,1.4,7.73,8.57s-11.09,4.47-17.23-.28-16.62-.75-15.2,7.45,11.2,19.47,11.2,19.47c0,0,16.86,26.46,16.49,36.61,0,0,3.54,17.05,2.7,23.94,0,0-15.81-87.13-85.21-114.64,0,0-9.41-1.06-11.54,0s-7.63,8.52.89,11.18,8.87-4.08,15.44-2.66c6.57,1.42,3.55,7.1,3.55,7.1,0,0,5.32-8.87-5.15-9.41s-12.6,4.97-14.91-1.06c-2.31-6.03,15.09-1.6,15.09-1.6,0,0,27.87,10.65,47.39,40.65,19.52,30,30.53,48.99,33.55,82.53,0,0-9.05-49.88-31.95-67.8-22.9-17.93-26.8-21.48-26.62-29.82s14.2-8.7,21.48-7.28,22.36-.89,19.17-12.78-14.38-9.76-22.54-1.95-11.36-4.26-11.36-4.26c0,0,1.06,15.44,11.89,5.68,10.83-9.76,17.93-3.02,17.75,3.19s-6.62,7.52-19.17,6.92c-12.55-.59-22.01-1.06-21.12,12.78.89,13.84,50.15,29.16,59.46,93.84,0,0,6.21,21.18,4.61,30.94,0,0-4.97-13.13-13.31-12.07s-5.68,6.03-2.48,9.23,11.95,3.55,11.65,10.29c0,0,3.26-7.1-9.52-11.18,0,0-4.79-6.57.89-5.32s12.07,9.41,12.25,14.73,2.17,37.4,2.17,37.4c0,0-.56,9.66-1.77,11.13Z"/>
</svg>