<?xml version="1.0" encoding="UTF-8"?>
<svg id="Layer_1" data-name="Layer 1" xmlns="http://www.w3.org/2000/svg" viewBox="0 0 216 558.45">
  <defs>
    <style>
      .cls-1 {
        fill: #4C1D27;
        stroke-width: 0px;
      }
    </style>
  </defs>
  <circle class="cls-1" cx="88.06" cy="112.23" r="3.14"/>
  <path class="cls-1" d="m78.39,112.23s-33.41-10.95-73.23-4.16c0,0,32.01,13.06,73.23,4.16Z"/>
  <path class="cls-1" d="m78.39,108.07s-34.57-24.96-57.61-23.68c0,0,17.41,19.33,57.61,23.68Z"/>
  <path class="cls-1" d="m81.85,105.85s-24.32-36.96-41.48-41.95c0,0,4.35,21.17,41.48,41.95Z"/>
  <path class="cls-1" d="m84.92,103.72s-7.3-47.11-24.84-59.28c0,0-4.61,18.44,24.84,59.28Z"/>
  <path class="cls-1" d="m88.06,103.72s10.82-31.88-3.78-57.87c0,0-9.99,11.52,3.78,57.87Z"/>
  <path class="cls-1" d="m78.39,53.92v13.7s-4.1-9.47-6.02-12.29v-10.88s3.56,3.58,6.02,9.47Z"/>
  <path class="cls-1" d="m67.12,80.16s-5.89-9.15-6.02-16.26c0,0-5.89-7.81-10.88-9.73,0,0-.38,8.71,3.71,14.34,0,0,8.45,5.12,13.19,11.65Z"/>
  <path class="cls-1" d="m55.47,91.43s-9.09-8.07-10.75-12.55c0,0-4.74-4.74-14.34-4.8,0,0,3.2,6.11,9.09,10.26,0,0,9.35,2.1,16,7.09Z"/>
  <path class="cls-1" d="m42.93,102.69s-8.58-2.18-14.85-8.07c0,0-9.99-2.3-16.64,0,0,0,5.12,5.12,11.78,7.3,0,0,15.11-.77,19.72.77Z"/>
  <path class="cls-1" d="m94.79,118.17s40.55,63.53,44.21,133.61,1.31,343.53,1.31,343.53h-3.27l-.33-308.82s-.98-52.73-5.24-59.93-10.81-37.99-29.8-49.78c-18.99-11.79-25.87-40.94-47.49-43.56,0,0,52.73-1.64,73.03,72.7,0,0-4.27-35.65-34.15-86.83l1.73-.93Z"/>
  <path class="cls-1" d="m144.88,67.94s-28.36-46.4-52.96-58.95c0,0,9.13,28.48,52.96,58.95Z"/>
  <path class="cls-1" d="m147.68,65.83s-6.06-43.05-23.16-56.84c0,0-1.55,24.58,23.16,56.84Z"/>
  <path class="cls-1" d="m151.41,65.83s12.12-39,0-56.84c0,0-10.41,15.87,0,56.84Z"/>
  <path class="cls-1" d="m154.98,65.83s26.12-34.81,23.32-56.84c0,0-13.24,6.52-23.32,56.84Z"/>
  <path class="cls-1" d="m157.67,67.94s38.1-24.37,54.34-58.95c0,0-22.82,9.77-54.34,58.95Z"/>
  <path class="cls-1" d="m175.27,37.92s4.06-9.17,5.03-16.33c0,0,8.9-13.03,13.73-12.6,0,0,.39,7.96-6.96,15.7,0,0-8.32,7.71-11.8,13.24Z"/>
  <path class="cls-1" d="m159.6,37.92s1.42-9.98,5.99-14.47c0,0,1.55-11.02-.97-14.46,0,0-4.02,2.12-5.99,10.18,0,0,2.13,11.11.97,18.76Z"/>
  <path class="cls-1" d="m143.36,36.29s-.64-8.12,1.52-16.24c0,0-3.26-10.92-6.93-11.07,0,0-1.35,8.55-.97,12.23,0,0,5.61,9.28,6.38,15.08Z"/>
  <path class="cls-1" d="m128.28,37.92s-5.03-9.61-5.22-15.29c0,0-8.32-12.71-13.92-13.65,0,0-.19,8.59,6.38,14.47,0,0,11.99,13.01,12.76,14.47Z"/>
  <circle class="cls-1" cx="151.31" cy="73.84" r="3.63"/>
  <path class="cls-1" d="m149.36,81.3v477.15h3.29V233.54s6.57-36.36,17.02-54.15,16.44-15.47,18.95-30.94,2.51-18.37,4.83-27.07c0,0-34.03,22.43-40.22,99.98v-45.06s6.77-40.03,15.66-53.76,18.95-21.08,19.72-31.33,4.83-29.01,4.83-29.01c0,0-36.36,31.33-40.22,100.17v-81.07h-3.87Z"/>
</svg>