<?xml version="1.0" encoding="UTF-8"?>
<svg id="Layer_1" data-name="Layer 1" xmlns="http://www.w3.org/2000/svg" viewBox="0 0 74.23 137.21">
  <defs>
    <style>
      .cls-1 {
        fill: #371724;
        stroke-width: 0px;
      }
    </style>
  </defs>
  <path class="cls-1" d="m33.27,133.82s-4.55-3.69-13.65-1.01-17.19,1.77-18.3-4.85c0,0-1.87,9.35,12.13,9.25,0,0,8.6-.46,14.21-2.88,0,0,2.17-1.06,5.61-.51Z"/>
  <path class="cls-1" d="m2.68,130.23s-1.82-4.3,2.68-4.55,6.67,1.42,13.15.71c0,0-1.31,3.34-7.28,2.88s-7.18-1.47-8.54.96Z"/>
  <path class="cls-1" d="m38.43,135.08h2.12s1.87-4.7,8.6-4.35,8.9,5.01,14.97,4.35,8.09-2.98,8.09-2.98c0,0-2.63.56-5.66.48s-5.61-.94-10.62-4.22-12.34.4-12.34.4c0,0,1.97-6.98,1.82-12.94s1.77-7.48,3.39-7.53,3.44,1.62,3.44,1.62c0,0-1.62-2.53-4.4-2.53s-5.46,4.04-5.97,9.3-.76,14.56-1.82,15.27c0,0,.25-18.51,1.31-19.92,0,0-3.03.2-2.93,23.06Z"/>
  <path class="cls-1" d="m37.92,135.15s-.76-19.38,3.59-24.79,18.66-20.38,15.12-33.27c0,0-.3,13.5-10.82,21.59s-11.43,16.28-11.33,21.84,1.52,9.71,1.52,9.71c0,0-7.89-11.83-7.58-20.02s-.71-7.79,6.37-23.87c0,0,5.36-7.28,5.56-17.19s-7.08-17.9-6.78-22.96c0,0,.4,6.98,1.72,13.04s1.62,9.61,1.42,10.92-3.13,12.13-6.57,17.39-5.46,14.87-5.46,19.82,1.42,16,10.52,27.77h2.73Z"/>
  <path class="cls-1" d="m48.54,109.17s3.51-.23,3.92,1.97,1.92,3.89,1.92,3.89c0,0-3.36,1.16-3.92-1.77s-.66-3.46-1.92-4.1Z"/>
  <path class="cls-1" d="m36.47,108.15v-23.93s1.38-2.12,1.62-2.9v24.57s-1.18,1.35-1.62,2.26Z"/>
  <path class="cls-1" d="m33.3,90.86l1.58,22.25s-.74,1.31-.79,4.42.42,9.13.79,10.08c0,0-.51-1.35-1.01-1.58,0,0-1.92-30.34-2.22-31.28,0,0,.64-.44,1.65-3.88Z"/>
  <path class="cls-1" d="m27.1,48.12s-1.47-12.39,2.28-15.78,2.68-8.19,1.21-8.75c-1.47-.56-2.73,1.57-2.43,3.34,0,0,.7-3.12,1.95-2.86,0,0-1.64,2.45-.83,4.85,0,0-.4,3.16-1.11,4.53-.71,1.37-2.17,5.99-1.77,9.76,0,0-.48-4.35.1-6.57.58-2.22,2.05-4.22,1.74-6.95-.3-2.73-1.54-4.42-1.54-4.42,0,0-4.45,1.57-4.2,5.49.25,3.92.46,3.59.46,3.59,0,0,2.83,1.85,2.81,5.59l.28,6.42-.43.35s.25-8.24-1.11-9.76-1.87-4.27-10.31-3.79c0,0-2.53,2.55-2.43,6.24.1,3.69,2.88,5.74,5.36,5.99s4.88,1.34,5.51,2.65c0,0,.17.3-.7-.18s-1.33-1.29-7.42-2.76c0,0-.73-.18-1.82-.3-1.09-.13-2.96-1.57-2.96-1.57,0,0-.4-.53-2.35-.51s-4.45.53-4.75.73c0,0,.53,5.18,3.59,5.06,3.06-.13,7.26-2.48,9-2.48s4.53.83,5.46,1.79c0,0-2.68-1.31-5.16-1.29-2.47.02-6.55,2.68-8.82,2.5-2.28-.18-3.97-1.39-6.04-1.69,0,0-.46-.71.18-.71s2.53-.08,2.53-.08l-.18-.38S-.05,45.89,0,46.73s1.01,3.46,5.64,3.72,7.63-2.93,11.73-2.48,3.41,1.74,6.52,2.22c0,0,2.83,3.17,6.55,34.63,0,0,1.01-2.56,1.67-3.51,0,0-2.88-30.02-5.01-33.2Zm-2.43-.72c-1.13-3.05-2.75-5.92-3.22-5.73-.47.19.05,1.13.05,1.13l2.36,3.94s.83,1.52.51,1.58c-.32.06-2.48-4.36-3.27-5.2-.79-.84-1.6-.03-.79.55.81.58,3.35,4.01,3.42,4.39.07.39-.25.24-.25.24-.56-1.69-3.52-4.26-3.98-4.6-.46-.34-1.38-.39-1.16.08.22.47,1.11,1.21,1.11,1.21-.25-.03-2.11-1.11-2.11-1.11,2.36-.86,6.39-4.87,6.39-4.87-.2.3.08,3.42.08,3.42,0,0-.74-2.24-1.23-1.52-.49.72,2.12,5.29,2.28,5.92s-.19.57-.19.57Z"/>
  <path class="cls-1" d="m46.34.03s-.73-.23-1.14.53c-.4.76-.48,2.3-.48,2.3,0,0,.81-2.58,1.31-2.38.51.2,1.09,3.79,1.24,7.53s-.91,6.37-.91,6.37c0,0-1.92,4.7-2.63,5.61-.71.91-1.16,4.02-1.16,4.02,0,0-.78,4.22-1.62,4.55,0,0,1.21-4.98,1.26-5.74.05-.76,3.49-8.34,3.49-8.34,0,0,1.34-2.81,1.06-5.74-.28-2.93-.35-4.27-3.97-7.15,0,0-.89,1.16-.36,2.25.53,1.09,1.64,3.77,1.59,7.1-.05,3.34-.35,5.92-1.97,8.62-1.62,2.71-2.3,9.46-2.3,9.46,0,0-.28.51-.58.03-.3-.48,1.49-8.49,2.68-10.62,1.19-2.12,1.82-6.7,1.64-7.94s-.61-8.86-5.46-10.5c0,0-5.01,2.43-5.36,10.7,0,0-.38,3.64,1.06,6.47,1.44,2.83,2.81,9,2.98,10.14.18,1.14.03,1.97-.23,1.96s-.43-.44-.53-2.36c-.1-1.92-1.44-7.51-2.76-9.53-1.31-2.02-1.11-7.56-1.11-7.56,0,0,.58-4.22,1.44-5.64.86-1.42-.28-2.53-.28-2.53,0,0-4.04,1.87-4.17,7.13-.13,5.26,3.97,11.2,4.42,13.27.46,2.07.76,4.37,1.44,5.51.68,1.14-.61.78-.78.2-.18-.58-.88-5.59-1.54-6.57s-3.97-8.29-4.02-10.57c-.05-2.28.56-10.21,1.44-10.16s.66,2.63.66,2.63c0,0,1.06-2.84-.35-3.09-1.42-.25-3.84,3.29-3.49,9.46s2.22,7.66,4.07,10.04c1.85,2.38,1.57,5.01,1.57,5.01,0,0,.63,4.4,2.53,5.66,1.9,1.26,1.42,23.11,1.42,23.11,0,0,2.33,4.85,2.25,5.26,0,0-.02-26.49,1.49-28.26,0,0,1.97-.66,2.68-3.89s.73-4.07,1.64-5.81,3.99-4.78,4.45-7.89c.46-3.11.2-11.96-2.63-12.64Zm-6.26,14.81s-.03,6.12-.84,8.66c0,0,.13-7.24.84-8.66Zm-3.91.37c.71,1.15.78,8.46.78,8.46-1.08-3.94-.78-8.46-.78-8.46Zm2.09,12.78s-.34.37-.57,0c0,0-.2-13.92.17-15.3,0,0,.67.54.4,15.3Z"/>
  <path class="cls-1" d="m73.06,52.35c-.76-.07-2.24,0-2.24,0l-.02.02c.34-.66.6-1.49.73-2.55,0,0-2.97-.96-4.96-.98s-5.34,2.51-8.07,2.85c-2.73.34-5.48,1.4-6.69,2.65,0,0-.44.17-.46.03s.99-1.84,2.68-2.21c1.69-.37,5.38-.57,6.56-2.29,1.18-1.72,1.69-3,1.75-4.75.07-1.75-2.01-5.65-2.53-5.78-.52-.13-4.96-.07-5.95.4s-4.9,2.21-5.11,5.81-.24,6.83-.24,6.83c0,0-.02.67-.29.66-.27-.02-.32-.27-.29-.86.03-.59-.74-9.17,3.15-11.63,0,0,.49-2.92.4-3.78-.08-.86-.81-5.14-3.61-5.65,0,0-2.06,3.08-2.09,5.06-.03,1.97,1.11,5.78,1.77,6.84.66,1.06.02,6.47.02,6.47,0,0-.07-5.28-.39-6.2-.32-.93-1.72-4.48-1.8-5.98,0,0-.22-.89-.64-1.33-.42-.44-.71-4.77-.54-5.56,0,0,1.77,1.8,1.79,3.86,0,0,.08-.56.27-.81,0,0-.79-3.64-2.19-3.64s-2.19,2.33-2.09,3.69.76,3.08,2.41,5.73,2.34,3.3,2.48,4.4c.13,1.1,0,6.25-.1,8.12s.07,2.92.07,2.92c0,0-1.62,6-2.39,12.27-.78,6.27-3.02,23.75-3.91,35.56,0,0,1.37-1.57,1.92-1.87,0,0,2.12-20.68,2.68-23.01.56-2.33,2.43-19.82,4.85-21.08s4.75-2.67,6.57-2.4c1.82.27,9.25,2.5,11.43,2.55s5.66-1.31,6.22-3.84c0,0-.4-.46-1.16-.52Zm-22.67,2.12c-.27-.02,0-.59,0-.59,0,0,3.02-3.94,3.52-4.15s.3-.57.05-.79-.69-.29-1.08.42-2.51,3.67-2.76,4.42c-.25.74-.51.52-.51.52,0,0-.35-.12.08-.59.44-.47,3.34-5.06,3.03-5.66-.3-.61-1.11.57-1.11.57,0,0-1.84,3.27-2.26,4.97,0,0-.19.29-.34.1-.15-.19.35-1.28.35-1.28,0,0,1.48-3.86,1.96-4.16.47-.3.62-.79.25-1.26s-.79.03-.84.42c-.05.39-.44,1.23-.64,1.26-.2.03.03-.81.13-1.1s.69-1.57.15-2.43c0,0,3.74,4.25,6.32,4.92,0,0-.3.29-.74.22,0,0-.15-.08-.62.46-.47.54-.54.12-.54.12,0,0,.12-.35.32-.44.2-.08.44-.25.32-.61-.12-.36-1.23.25-1.72.57-.49.32-3,3.84-3,3.84,0,0-.07.25-.34.24Zm17.41.81c-2.26.05-6.59-2.49-9.29-2.54-2.7-.05-4.9,1.26-4.9,1.26,0,0,2.85-1.68,4.85-1.68s7.65,2.59,8.9,2.44c.85-.1,2.24-.47,3.2-1.97l2.41.02s.67,0,.66.27-3.57,2.16-5.83,2.21Z"/>
</svg>