<?xml version="1.0" encoding="UTF-8"?>
<svg id="Layer_1" data-name="Layer 1" xmlns="http://www.w3.org/2000/svg" viewBox="0 0 42.85 150.1">
  <defs>
    <style>
      .cls-1 {
        fill: #371724;
        stroke-width: 0px;
      }
    </style>
  </defs>
  <path class="cls-1" d="m8.47,74.43c.14-1.57,1.2-2.45,1.88-2.91.68-.46,1.74-1.29,2.02-1.85,0,0-.83-.05-1.24.1,0,0,.18-1.64.76-2.07,0,0-1.49-.28-2.33,1.29,0,0-.43-1.14-1.44-.88,0,0,.46,1.16,0,1.67-.46.51-.81-.58-.81-.58,0,0-.35,2.02-.33,2.78,0,0-.28.33-.35.63-.08.3.05.68.4,1.57s5.64,8.87,5.64,8.87v-2.12s-4.35-4.93-4.21-6.5Zm1.55-5.14s.27-.1.34,0c.07.1-.13.3-.13.3,0,0-1.28.93-1.57,1.42-.3.5-.89,2.11-.89,2.11,0,0-.2-2.65,2.26-3.83Z"/>
  <path class="cls-1" d="m5.24,69.98s.2-1.63.44-1.94c0,0-1.01-3.19-.56-4.26s1.79-3.67,2.71-4.5c0,0-.67-.1-.99,0,0,0,1.45-1.42,1.48-2.22,0,0-1.33-.2-2.09.64,0,0,1.21-1.74,1.26-2.36,0,0-.24-.25-.51-.24,0,0,.02-.35.25-.54s.81-1.31.89-1.89c0,0,.03-.66-.34-1.11,0,0,1.45-2.04,1.52-8.48,0,0,.37-.07.46-.67s-.34-.79-.34-.79c0,0,1.2-.71,1.26-1.85s-.03-3.91-.96-4.97c0,0-1.13,1.2-1.04,2.81,0,0-1.52-1.72-1.92-1.87,0,0,.15,1.9.2,2.24,0,0-1.09-.81-1.97-.81,0,0,.52,3.47,3.27,4.55,0,0-.15.24-.15.64s.54.71.54.71c0,0-.27,6.34-1.33,7.57,0,0-1.35-3.22.37-3.94,0,0,.13,0,.09-.19s-.48-.05-.48-.05c0,0-1,.37-1.01,1.67s.39,1.93.33,2.59-.76,4.04-1.63,5.62-1.25,3.2-1.25,4.08-.37,3.57,1.48,9.57Z"/>
  <path class="cls-1" d="m8.09,32.3c.05-.87,1.05-2.16.87-2.73,0,0-.54.01-1.4.62,0,0-.58-.85-.95-.96s-.8,1.01-.8,1.01c0,0-.46.19-.66,0-.2-.19-.4-.29-.4-.29,0,0-.15.78-.19,1.12-.04.34-1.71.38-1.71.38,0,0,1.63.87,1.74,1.39.11.52-.23,3.88,1.66,4.16,0,0-.21-2.2.06-2.41,0,0,1.52,1.05,1.78,1.74,0,0,.77-1.52,1.06-1.74,0,0-1.12-1.42-1.07-2.29Zm-2.53,2.35c.04-.55-.56-1.84-.56-1.84,1.02.26.56,1.84.56,1.84Zm1.3-3.46s-.05.6-.59.7c-.54.1-.5-.23-.91-.18,0,0-.28.09-.27.32s-.79.05-.84-.22c-.01-.06.93-.27,1.06-.6.12-.33.59.3.59.3,0,0,.34.3.5-.18s.3-.71.49-.74c.19-.03.34.53.53.54.19,0,.87-.87.87-.87,0,0-.1,1.06-.73,1.39,0,0-.4,0-.69-.48Zm.74,1.17s.3,2.02.85,2.22c0,0-1.55-.32-.85-2.22Z"/>
  <path class="cls-1" d="m21.75,77.41s-1.21.96-1.39,2.22c0,0,.08-2.91-.35-4.07-.43-1.16-1.85-3.87-1.72-6.5,0,0-.81,1.9-.66,3.11.15,1.21.71,4.2,2.12,6.27,0,0,.05.23-.09.28-.14.05-.33-.06-.43-.28-.1-.21-1.93-3.29-2.1-5.81,0,0-.24,4.22.15,5.87,0,0-1.25-2.33-1.97-2.41-.72-.08-.22,6.64,1.13,8.83,0,0-.61-.39-.83-.13s-.1.94-.1.94c0,0-1.08-1.45-1.18-2.36,0,0-.3,1.31.27,2.75.57,1.43,2.31,6.91,2.9,8.75s.67,10.94.67,10.94c0,0-.57,10.03-3.96,11.29,0,0,.96-1.74.76-3.79,0,0-.87-.03-1.11.43v-52.05s-.29-.5-.83-.33v50.63s-1.72-9.39-2.76-10.96v-2.88s.57-2.75,2.29-3.59c0,0-.29-.74-1.13-.84,0,0,.96-1.65.81-3.72-.15-2.07-.39-2.12-.39-2.12,0,0-1.89.91-2.22,2.33,0,0,.66-2.65.61-4.38-.05-1.74-.05-3.25-1.04-6.88,0,0-2.13,4.1-2.23,6.45,0,0-.73-.71-.76-3.19-.03-2.48-.66-6.65,0-9.78.66-3.13,1.16-7.84,2.73-9.3,1.57-1.47,2.98-2.3,3.77-2.4.78-.1,2.05.76,2.4,1.62.35.86,2.55.94,2.55.94,0,0-.53-.76-.43-.99,0,0,1.64,1.11,2.43.91,0,0,.03-1.74-1.57-2.93,0,0,.48-1.95,3.67-2.35,0,0-1.09-2.93-2.98-2.96,0,0-.76,0-.99.35,0,0,.23-.94.23-1.85s-.88-1.97-.88-1.97c0,0-.78,1.62-2.2,1.72,0,0-.25-1.31.18-1.72,0,0-4.2,2.88-4.83,4.53s-1.52,1.9-2.35,6.47c0,0-.4,1.06-.66,1.52-.25.46-1.64,5.92-1.92,7.99-.28,2.07-.33,6.19-.33,6.19,0,0,0,4.17.43,6.14.43,1.97.08,4.12.86,5.66,0,0-1.26-.96-1.29-1.37,0,0,.78,5.71,4.63,12.54,0,0,1.79,5.97,1.87,6.75s1.29,5.51,1.26,6.42c-.03.91-.53,1.74-.53,1.74,0,0,.38-2.55-.48-3.36-.86-.81-1.31-.25-1.31-.25,0,0,.25-3.13-.35-4.4-.61-1.26-2.2-4.07-3.77-5.51,0,0-.56-.72-.2-1.26,0,0,.35-.74.66-.71.3.03.62.66.62.78s.51-.89-.51-1.1c-1.01-.2-1.3.98-1.21,1.6.08.62.34,1.48,1.4,3.1,1.06,1.62,1.21,3.35,1.25,4.31.03.96-.3,2.7.25,4.97.56,2.28,2.81,6.4,2.81,6.4,0,0,.79,1.62,1.08,4.03.29,2.41.34,2.38.51,4.6.17,2.22.03,15.3-.3,16.52-.34,1.21-.67,1.96-.61,2.76.07.81.74,1.55,1.55,1.55s.94-.24,1.2-1.3c0,0-.2-2.33-.66-5.31-.46-2.98-.25-10.21-.25-10.21,0,0,.3-1.67.91-2.07.61-.4,3.99-2.73,4.35-5.97,0,0-2.68,1.16-2.98,1.57,0,0,.48-3.59.33-4.75,0,0-.82.84-.85,1.7s-.4.52-.4.52c0,0-.08-.25-.29-.27-.2-.02-.34,1.01-.59,1.11v-3.57s-.03-.86.34-1.11,3.87-4.88,4.3-12.56c.43-7.69-.18-9.15-.18-9.15,0,0-.3-4.17-.08-5.38.23-1.21.94-5.64,2.81-7.21,0,0-.71-.28-1.16-.15s-1.64,1.31-1.64,1.31c0,0,1.92-3.56,2.28-4.96.35-1.39.38-1.39.71-4.93Zm-7.41-21.34c2.25.2,4.35,1.14,4.35,1.14,0,0-3.44-.96-4.45-.63-1.01.33-3.87,2.45-3.87,2.45,0,0,1.72-3.16,3.97-2.96Zm-5.62,39.02s-.39-1.57-.66-6.69c-.27-5.12.84-5.73.84-5.73-.59,1.94-.19,12.42-.19,12.42Z"/>
  <path class="cls-1" d="m16.5,63.57s.94-.3,1.21.4.88,2.87,2.06,2.9,5.09-4.28,8.73-12.81c0,0-.44-1.31,0-1.85s1.18-.57,1.55-.34.88.64.61,1.52-1.48.84-1.48.84c0,0-5.36,13.45-9.17,13.79,0,0-1.58.03-2.09-1.11s-1.42-3.34-1.42-3.34Z"/>
  <path class="cls-1" d="m13.08,52.28s.91-.15.94-.54v-21.91s.08-1.04.33-1.19.46-.48.43-1.06-.94-.99-1.21-.99-1.19.3-1.29,1.24.66.94.66.94l.15,23.51Z"/>
  <path class="cls-1" d="m28.92,51.2s-1.1-1.62-.98-2.88.56-2.81.56-2.81c0,0,.25,1.48.42,1.62s1.65-.81,1.65-.81c0,0-.1,2.46,0,2.65s1.8-1.21,1.99-1.69c0,0,.46,1.45.52,2.44s-1.08,2.09-1.37,2.28c0,0-.37.2-.64.05s-.66-.82-.89-.86-1.24.25-1.27.02Z"/>
  <path class="cls-1" d="m41.11,31.9s0,1.39-.9,1.52c-.9.13-.96-.27-.96-.27,0,0-.87.67-.77,1,0,0,.73-.33.92.09.19.42-1.28,2-2.04,2.24,0,0-.3.08-.3-.04s.18-.35.3-.42c.13-.06,1.33-1.16,1.43-1.5,0,0-1.06.09-1.12-.19-.06-.28,1.77-1.98,1.92-2.38.15-.39.04-1.15.04-1.15,0,0-1.5.47-2.07.43,0,0,.99-2.05.85-3.02,0,0-1.92,1.18-2.5,1.19,0,0,.29-1.23.21-1.69-.08-.47-.88-1.79-.88-1.79,0,0-.4,2.54-1.31,2.91-.91.37-2.22-2.77-2.22-2.77,0,0-.29,1.19-.44,2.34s-.56.54-.82.14-.8-.7-.8-.7c0,0-.05,1.53.25,2.31.3.78.53,1.14.87.68.34-.46.67-.56.94-.52.27.04.58,3.22.39,4.99,0,0-.33-4.13-.61-4.39-.28-.25-.88,1.12-1.16.76-.28-.37-1.29-2.96-2.22-3.53,0,0-.75,1.91-.68,2.91,0,0-1.83-1.15-2.76-2.48,0,0-.29.53-.33,1.66-.04,1.12.32,1.91.32,1.91,0,0,.23.4-.03.51s-1.91-.75-2.33-1.25-.58.99-.24,1.73,1.71,2.04,1.71,2.04c0,0-1.37.03-1.73-.01,0,0,.58,2,1.63,2.12s3.89-.72,5.18.82c0,0,.15.3-.35.15-.5-.14-4.87-.65-8.01-.55,0,0,1.57,1.44,1.73,1.96,0,0-2.11-.18-2.53.04-.42.21,1.57,1.54,1.57,1.54,0,0-1.77,1.62-1.76,2.28s3.69.71,3.69.71c0,0-.24,2.04-.06,2.31,0,0,2.3-1.09,2.68-1.79s.85,1.28.85,1.28c0,0,2.11-1.3,3.03-3.75,0,0-.59,1.34-.46,4.21,0,0,1.18-.35,1.53-1.18,0,0,.53,1.83.35,2.87,0,0,1.48-1.45,1.57-1.9,0,0,.99,2.1.83,3.84,0,0,1.88-1.58,1.91-3.74,0,0,1.04.62,1.18.97.14.35.49.48.72-.25s.33-1.35.33-1.35c0,0,1.54.43,1.88,1.09,0,0,.32-1.05-.09-1.64-.4-.59-.76-.97-.76-.97,0,0,1.44.1,1.45-.32s-1.74-2.91-2.53-3.15c-.78-.24.06-.43.38-.25.32.18,1.37,1.55,1.68,1.55s2.59-.48,3.05-2.84c.46-2.36-.18-5.9-1.59-7.31Zm-17,9.32s1.08-1.48,2.15-1.51c1.08-.04,1.86.76,1.86.76,0,0-1.19-.28-1.89-.21-.7.07-2.11.96-2.11.96Zm1.62,1.63s.59-1.53,2.61-.91c0,0-1.91.32-2.61.91Zm9.74-8.94c.41-.47.05-2.08.05-2.08.39.54.58,1.48.46,2.08s-1.69,1.47-1.69,1.47c0,0,.78-1.01,1.19-1.47Zm-.89,3.19c.39-.14.58.3.63.48s-.33.72-1.28.61c0,0,.26-.94.65-1.09Zm-.58-5.88c-.31,1.08-.28,2.95-.28,2.95-.9-1.71.28-2.95.28-2.95Zm-1.02,5c.63-.2,1.11.29,1.14.51.03.23-.55.69-1.2.72,0,0-.57-1.04.06-1.24Zm-.09,1.53c.54-.02.69.69.69.69,0,0,0,.42-.68.46-.67.04-.8-.19-.81-.46,0,0,.26-.67.8-.69Zm-1.15-1.05c.49.32.32,1.12.32,1.12,0,0-1.18-.04-1.31-.32s.5-1.13.99-.8Zm-5.63-2.79c.53,1.39,2.22,2.63,2.22,2.63-2.06-.11-2.22-2.63-2.22-2.63Zm2.28-2.22s1.21-.08,1.67,1.54-.03,2.39-.03,2.39c.28-2.1-1.64-3.93-1.64-3.93Zm1.72,6.64c.8-.49,1.7.4,1.7.4-1.03,1.45-2.5.09-1.7-.4Zm1.48,2.02c-.28-.02-.38-.4-.3-.64.08-.24,1.14-.5,1.14-.5,0,0,.22.34.05.79-.17.46-.61.36-.89.34Zm.97,4.21c.27-.91-.23-2.54-.25-2.62,0,0,.83.4.85,1.31.01.9-.59,1.31-.59,1.31Zm.96-3.98s-.65.04-.68-.38c-.03-.42.31-.82.31-.82,0,0,.81.11.89.6.09.49-.52.6-.52.6Zm.32-1.66s.67-.58,1.09-.47.49.43.22.81c-.28.38-.91.43-1.3-.34Zm1.24,2.58c.46.86,1.74,2.14,1.74,2.14-1.57-.33-1.74-2.14-1.74-2.14Zm1.23-2.29c.91.29,3.01.48,3.01.48-1.71.47-3.01-.48-3.01-.48Zm.87-1.28s1.88-1.09,2.89-2.15c0,0-.52,2.11-2.89,2.15Zm4.51.14c-.03.91-1.23,1.54-1.23,1.54.35,1.25-.58,1.74-.58,1.74.66-.99-.23-2-.23-2,0,0,1.59-.52,1.67-1.28.08-.76-1.1-1.23-1.1-1.23.78-.78,1.55-3.21,1.55-3.21.23,1.44-.9,3.02-.9,3.02,0,0,.83.49.81,1.4Z"/>
  <path class="cls-1" d="m14.64,26.36s1.45-2.43,1.58-4.11-.4-3.67-.4-3.67c0,0-1.42,1.35-1.45,2.06,0,0-.34-1.58-1.01-2.06,0,0-1.31,1.21-1.31,2.43,0,0-.54-2.26-1.33-2.43,0,0-.35,1.65-.32,3.34s1.04,3.37,1.35,3.67.67.39,1.11.33,1.58-.13,1.79.45Z"/>
  <path class="cls-1" d="m28.19,8.52s-1.47-.13-1.9,0c0,0,.16-2.14-.39-2.52,0,0-.88,1.72-1.49,1.81,0,0-.49-1.66-1.02-1.81,0,0-.14,1.21-1.98,1.54,0,0-1.49,2.72-2.79,3.03,0,0,2.26-2.71,2.48-3.19,0,0,.71-.95.7-1.69,0,0-.68.32-.88.73,0,0,0-3.67-.96-4.66,0,0-.72,1.01-.77,1.45,0,0-.16-2.69-1.24-3.22,0,0-1.11.52-1.4,1.58,0,0-.9-1.2-.9-1.58,0,0-.76,1.35-.8,2.45-.04,1.1-.01,1.37-.01,1.37,0,0-.91-.88-.9-1.72,0,0-1.31,1.54-1.39,2.48-.08.94.8,2.21.8,2.21,0,0-1.43-.94-1.35-2.54.08-1.61.3-2.38.3-2.38,0,0-1.11.88-1.2,1.24,0,0-.11-2.46-.86-2.93,0,0-.33,1.57-.9,1.97,0,0-.47-1.34-.33-2.15,0,0-2.2,1.29-2.4,2.77,0,0-.86-1.01-1.44-1.04,0,0-.25,1.66-.19,2.45.06.8.92,3.02.92,3.02,0,0-1.16-.03-1.53-.38,0,0,1.83,2.62,3.31,3.7-.81-.48-2.14-1.32-2.4-1.69-.38-.54-1.74-.28-2.64-1.44,0,0,.03,1.42-.29,1.48-.32.06-2.06-2.46-2.33-3.46,0,0,.11,1.26.23,1.73s-.47,4.06,2.36,6.71c2.83,2.65,4.3,2,4.3,2,0,0,.43-2.02,1.18-2.68,0,0-1.2-.97-1.1-1.47.1-.49,3.11-.1,3.11-.1,0,0-1.31.43-2.02.44,0,0,.97.63.95,1.07-.03.44-1.19.42-1.87,2.86,0,0-.06.76.05,1.05,0,0,.95-1.24,1.45-1.18.51.06-.04,3.44-.04,3.44,0,0,1.5-2.24,2.17-2.25s1.35,2.58,1.35,2.58c0,0,.74-2.09,1.2-2.2s.98,1.43.98,1.43c0,0,.08.33.21.35.14.03,1.46-2.4,1.74-2.53s2.33,2.24,2.33,2.24c0,0-.01-3.39-.2-3.82,0,0,1.54.16,1.88,0,0,0-.21-2.77-3.44-3.92,0,0,3.21.64,3.7,2.73,0,0,2.1.77,2.09,2.29,0,0,.53-1.48.51-2.49,0,0,2.1.46,2.82.01,0,0-.63-1.05-1.14-1.24,0,0,2.63-.37,3.3-1.35,0,0-.71-.56-1.44-.66,0,0,1.55-.85,1.53-1.95Zm-22.09,3.6c-1.38.05-2.36-1.62-2.36-1.62,1.15,1.16,2.36,1.62,2.36,1.62Zm-.47,1.18s-.72,1.33-1.52,1.04c-.79-.29-.94-2.22-.94-2.22-1.8-.29-2.56-3.32-2.56-3.32,1.25,2.54,3.03,2.65,3.03,2.65,0,0-.12,2.21.66,2.34s1.28-1.2,1.28-1.2c.19.39,1.3,1.79,1.3,1.79-.39.04-1.25-1.09-1.25-1.09Zm10.74-8.54c.49,3.17-1.35,2.92-1.35,2.92,1.06-.35,1.35-2.92,1.35-2.92Zm-.36,5.47c0,.18-.35.39-.67.36-.32-.03-.82-.5-.82-.5,0,0,.76-.33,1.02-.28.25.05.47.23.47.42Zm-1.5-1.51c.43,0,1.15.37,1.18.65.03.28-1.23.27-1.44.08,0,0-.16-.74.26-.74Zm-1.26-.46s.77.13.76.4-.48.5-.48.5c0,0-.85-.19-.98-.54s.7-.36.7-.36Zm-1.77.54s.43-.07.81,0c.38.07.2.65.2.65-.27.06-1.02.01-1.17-.25s.16-.39.16-.39Zm-.05.83c.37.04.93.64.93.64,0,0-.72.34-1,.33s-.56-.19-.63-.56c-.08-.36.34-.45.7-.41Zm-4.04-3.34c.07,1.58,2.63,3.05,2.63,3.05-2.98-.27-2.63-3.05-2.63-3.05Zm2.97-1.87c-.47,1.7.74,3.47.74,3.47-2.23-1.47-.74-3.47-.74-3.47Zm.57,10.47s-.47-.34-.39-1.16c.08-.83,1.11-1.45,1.11-1.45-.96,1.03-.72,2.61-.72,2.61Zm1.57-3.32s-.81-.21-.74-.53c.08-.32,1.07-.48,1.07-.48,0,0,.45.11.39.54-.06.43-.72.47-.72.47Zm.29-1.63c-.06-.26.56-.43.56-.43.32,0,.73.18.69.41-.04.23-.44.41-.65.41s-.55-.12-.6-.38Zm1.53,1.54c-.36.04-.67-.06-.77-.41-.11-.35.48-.47.48-.47.48,0,1.25.33,1.18.56-.07.23-.53.29-.89.32Zm1.35,3.01c.59-1.4-.35-2.36-.35-2.36,1.97,1.11.35,2.36.35,2.36Zm.47-5.83s2.16-.46,2.28-2.68c0,0,.57,2.88-2.28,2.68Zm3.32,2.46s2.84-.4,3.25,1.28c0,0-1.53-1.15-3.25-1.28Zm.54-.91s1.2-1.47,3.66-1.11c0,0-3.02.47-3.66,1.11Z"/>
</svg>