<?xml version="1.0" encoding="UTF-8"?>
<svg id="Layer_1" data-name="Layer 1" xmlns="http://www.w3.org/2000/svg" viewBox="0 0 129.3 236.42">
  <defs>
    <style>
      .cls-1 {
        fill: #4C1D27;
        stroke-width: 0px;
      }
    </style>
  </defs>
  <path class="cls-1" d="m127.02,16.31c3.32.44,2.92-6.03-.59-2.8,0,0,1.79-.42,1.6,1.11-.19,1.53-2.39.81-2.83-.78-.44-1.58-.17-5.11-.17-5.11,0,0,.47,1.33,1.5,1.03,1.03-.3,1.58-.44,1.31-2.19,0,0-.34,1.04-1.33.98-.99-.07-2.7-5.12-2.7-5.12,0,0,1.72,1.01,2.87.94,1.15-.07,2.6-.59,2.62-2.16.01-1.57-1.22-2.22-2.23-2.19-1.01.03-1.8.72-1.8,1.67s1.06,1.1,1.06,1.1c0,0,1.03-.03,1.04-1.11.02-1.08-.64-1.01-.64-1.01,0,0,1.9-.19,1.74,1.63-.17,1.82-2.14,1.52-3.67.76s-5.14-2.85-7.72-2.93c-2.58-.08-5.66,1.11-7.18,5.41,0,0-1.1-5.51-6.74-5.51s-6.78,7.25-10.77,7.13c-3.99-.12-3.34-4.01-3.34-4.01,0,0,.71-2.58,2.63-2.43,1.92.15,2.01,1.57,2.01,1.57,0,0,0,1.11-1.25,1.15s-.81-1.7-.81-1.7c0,0-1.8,2.54.61,3.22,2.41.67,2.31-2.75,2.31-2.75,0,0,.2-2.04-2.98-2.18-3.19-.13-3.27,3.51-3.27,3.51,0,0-1.16-3.55-5.65-3.51-4.48.04-3.4,3.36-6.39,3.44,0,0-1.47.15-1.4-1.06.07-1.21,1.47-1.42,2.12-.1,0,0,.63-1.69-1.19-1.82-1.82-.13-1.69,1.29-1.69,1.95s.71,2.12,2.17,1.85c1.47-.28,2.63-1.29,2.63-1.29,0,0,.4,3.99,2.22,3.94,1.82-.05,2.93-.35,3.11-2.17.18-1.82-1.64-1.9-2.02-1.77s-.86.53-.88.99c-.03.46.43,1.01,1.09,1.09.66.08.96-.43.96-.43,0,0,.46,1.49-1.54,1.69s-2.38-2.6-2.3-3.44c.08-.83,1.59-2.12,3.44-2.12s4.22,1.62,5.01,3.54c0,0-.94-.18-1.42-.13-.48.05-1.19.25-1.19,1.24s.88,1.52.88,1.52c0,0-1.21-1.74.81-1.8,2.02-.05,2.35,2.93,5.33,2.78,2.98-.15,6.85-5.64,6.85-5.64,0,0-.68,1.44-.68,3.26s1.39,4.12,3.99,4.63,4.1,1.44,4.12,2.58-1.97.94-1.47-.58c0,0-.96.08-1.06.88-.1.81.81,1.31,1.49,1.29.68-.03,1.62-.38,1.62-1.74s-3.39-2.76-3.99-2.98c0,0,2.02-.48,2-2.76-.03-2.28-2-1.92-2-1.92,0,0-.99-.05-.94,1.09.05,1.14.99,1.01.99,1.01,0,0,.91.05.96-.78,0,0,1.04,2.71-1.79,2.76-2.83.05-3.24-2.68-3.24-4.2s.81-4.02,4.15-4.02c0,0,2.02-.2,2.58.58,0,0-1.82.4-1.87,1.74-.05,1.34.68,1.49.68,1.49,0,0-.18-1.77,1.01-1.72,1.19.05,3.16.58,3.39,2.81l.23,2.22s-.91.38-.88,1.29c.03.91,1.09,1.31,1.09,1.31,0,0-.08,4.96,7.05,7.28,7.13,2.33,10.92.43,11.83,6.62,0,0,.2,1.97-.63,2.48,0,0-.76-.28-1.14.33s-.1,1.29-.1,1.29c0,0-4.5.73-5.44-2.12-.94-2.86,1.92-3.49,1.92-3.49,0,0,1.26-.03,1.29,1.06.03,1.09-.88,1.29-1.82.71,0,0-.1,1.79,1.42,1.62,1.52-.18,1.79-.99,1.82-1.95.03-.96-1.11-2.1-2.6-2.12s-2.38,1.39-2.38,1.39c0,0-.53-3.01-3.24-3.06-2.71-.05-2.38,2.73-2.38,2.73,0,0-.03,1.74,1.92,1.87,1.95.13,1.72-1.24,1.72-1.77s-.4-.81-1.31-.81-.78.88-.78.88c0,0,.1.78.56.86,0,0-1.69.2-1.57-1.49.13-1.69,1.92-1.64,1.92-1.64,0,0,2.38.15,2.65,2.68.28,2.53-.3,3.97,2.93,5.36,0,0,1.67.2,1.95.18,0,0-1.77,1.29-1.69,3.08.08,1.79,1.79,3.19,3.16,3.62,1.37.43,1.84,1.85,1.84,1.85,0,0,.1.99-.93.78-1.04-.2-.91-1.44-.91-1.44,0,0-1.18,3.12,1.45,2.24,2.63-.88.03-3.3-.69-3.86,0,0,1.92-.88,1.84-2.65-.07-1.77-1.07-1.96-1.79-2.02-.72-.07-1.16.29-1.25,1.28-.08.99,1.33,1.74,2.19.49,0,0-.02,2.36-1.84,2.17-1.82-.19-2.36-1.77-2.36-2.46s1.18-3.02,2.8-3.59c0,0,.93.1,1.21-.51.29-.61.08-1.21.08-1.21,0,0,.93-.79.83-3.47-.1-2.68-3.54-5.9-8.6-5.63,0,0,3.13-1.6.54-3.64,0,0-.08,2.19-1.5,2.31-1.42.12-4.03-.13-4.03-.13,0,0,3.94-1.25.76-3.17,0,0,1.25,1.89-1.43,1.92-2.68.03-3.86-2.9-3.86-2.9,0,0,1.7.54,1.57-1.75,0,0-.48,1.16-1.72.67,0,0-.74-.25-.42-1.13,0,0,.67-.05.59-1.13-.08-1.08-.61-1.16-.61-1.16,0,0,1.62-2.34,3.47-.74,0,0,.44-2.04-2.7-1.43,0,0,.59-.91,1.21-.96s2.8.34,3.89-.93c0,0,1.23-.64,1.82.78,0,0,.4-2.17-1.96-2.85s-4.2,1.43-4.2,1.43c0,0,1.58-2.66,4.79-2.49,3.2.17,7.1,2.24,7.31,5.85.22,3.61-1.89,6-4.53,6s-3.34-2.16-1.9-3.1c0,0-.52-.52-1.62.15,0,0-.27-3.37,2.34-3.37,0,0,1.3-.22,1.48.89,0,0-1.06-.03-1.03,1.13s1.3,1.11,1.3,1.11c0,0,1.37-.02,1.25-1.33-.12-1.31-1.08-2.49-3.05-2.46-1.97.03-3,1.63-3.02,3.59-.02,1.96,1.75,4.15,4.03,4.06,2.28-.08,3.93-.93,4.92-2.8,0,0-.57,5.38,2.75,5.81Zm-10.8-13.41s-1.78,1.47-3.41,1.19c0,0,.68-1.68,3.41-1.19Z"/>
  <path class="cls-1" d="m5.03,10.5c.99,1.87,2.65,2.71,4.92,2.8,2.28.08,4.04-2.11,4.03-4.06-.02-1.96-1.04-3.56-3.02-3.59-1.97-.03-2.93,1.15-3.05,2.46-.12,1.31,1.25,1.33,1.25,1.33,0,0,1.26.05,1.3-1.11s-1.03-1.13-1.03-1.13c.19-1.11,1.48-.89,1.48-.89,2.61,0,2.34,3.37,2.34,3.37-1.1-.67-1.62-.15-1.62-.15,1.43.94.74,3.1-1.9,3.1s-4.75-2.39-4.53-6c.22-3.61,4.11-5.68,7.31-5.85,3.2-.17,4.79,2.49,4.79,2.49,0,0-1.84-2.11-4.2-1.43s-1.96,2.85-1.96,2.85c.59-1.42,1.82-.78,1.82-.78,1.1,1.26,3.27.88,3.89.93s1.21.96,1.21.96c-3.13-.61-2.7,1.43-2.7,1.43,1.85-1.6,3.47.74,3.47.74,0,0-.52.08-.61,1.16-.08,1.08.59,1.13.59,1.13.32.88-.42,1.13-.42,1.13-1.24.48-1.72-.67-1.72-.67-.13,2.29,1.57,1.75,1.57,1.75,0,0-1.18,2.93-3.86,2.9-2.68-.03-1.43-1.92-1.43-1.92-3.19,1.92.76,3.17.76,3.17,0,0-2.61.25-4.03.13-1.42-.12-1.5-2.31-1.5-2.31-2.6,2.04.54,3.64.54,3.64C3.68,17.81.24,21.03.14,23.71c-.1,2.68.83,3.47.83,3.47,0,0-.2.61.08,1.21.29.61,1.21.51,1.21.51,1.62.57,2.8,2.9,2.8,3.59s-.54,2.28-2.36,2.46c-1.82.19-1.84-2.17-1.84-2.17.86,1.25,2.28.51,2.19-.49-.08-.99-.52-1.35-1.25-1.28-.72.07-1.72.25-1.79,2.02-.07,1.77,1.84,2.65,1.84,2.65-.72.56-3.32,2.98-.69,3.86,2.63.88,1.45-2.24,1.45-2.24,0,0,.13,1.24-.91,1.44-1.04.2-.93-.78-.93-.78,0,0,.48-1.42,1.84-1.85,1.37-.43,3.08-1.82,3.16-3.62.08-1.79-1.69-3.08-1.69-3.08.28.03,1.95-.18,1.95-.18,3.24-1.39,2.65-2.83,2.93-5.36.28-2.53,2.65-2.68,2.65-2.68,0,0,1.79-.05,1.92,1.64.13,1.69-1.57,1.49-1.57,1.49.46-.08.56-.86.56-.86,0,0,.13-.88-.78-.88s-1.31.28-1.31.81-.23,1.9,1.72,1.77c1.95-.13,1.92-1.87,1.92-1.87,0,0,.33-2.78-2.38-2.73-2.71.05-3.24,3.06-3.24,3.06,0,0-.88-1.42-2.38-1.39s-2.63,1.16-2.6,2.12c.03.96.3,1.77,1.82,1.95,1.52.18,1.42-1.62,1.42-1.62-.94.58-1.85.38-1.82-.71.03-1.09,1.29-1.06,1.29-1.06,0,0,2.86.63,1.92,3.49-.94,2.86-5.44,2.12-5.44,2.12,0,0,.28-.68-.1-1.29s-1.14-.33-1.14-.33c-.83-.51-.63-2.48-.63-2.48.91-6.19,4.7-4.3,11.83-6.62,7.13-2.33,7.05-7.28,7.05-7.28,0,0,1.06-.4,1.09-1.31.03-.91-.88-1.29-.88-1.29l.23-2.22c.23-2.22,2.2-2.76,3.39-2.81,1.19-.05,1.01,1.72,1.01,1.72,0,0,.73-.15.68-1.49-.05-1.34-1.87-1.74-1.87-1.74.56-.78,2.58-.58,2.58-.58,3.34,0,4.15,2.5,4.15,4.02s-.4,4.25-3.24,4.2c-2.83-.05-1.79-2.76-1.79-2.76.05.83.96.78.96.78,0,0,.94.13.99-1.01.05-1.14-.94-1.09-.94-1.09,0,0-1.97-.35-2,1.92-.03,2.28,2,2.76,2,2.76-.61.23-3.99,1.62-3.99,2.98s.94,1.72,1.62,1.74c.68.03,1.59-.48,1.49-1.29-.1-.81-1.06-.88-1.06-.88.51,1.52-1.49,1.72-1.47.58s1.52-2.07,4.12-2.58,3.99-2.81,3.99-4.63-.68-3.26-.68-3.26c0,0,3.87,5.49,6.85,5.64,2.98.15,3.31-2.83,5.33-2.78,2.02.05.81,1.8.81,1.8,0,0,.88-.53.88-1.52s-.71-1.19-1.19-1.24c-.48-.05-1.42.13-1.42.13.78-1.92,3.16-3.54,5.01-3.54s3.36,1.29,3.44,2.12c.08.83-.3,3.64-2.3,3.44s-1.54-1.69-1.54-1.69c0,0,.3.51.96.43.66-.08,1.11-.63,1.09-1.09-.03-.46-.51-.86-.88-.99s-2.2-.05-2.02,1.77c.18,1.82,1.29,2.12,3.11,2.17,1.82.05,2.22-3.94,2.22-3.94,0,0,1.16,1.01,2.63,1.29,1.47.28,2.17-1.19,2.17-1.85s.13-2.07-1.69-1.95c-1.82.13-1.19,1.82-1.19,1.82.66-1.31,2.06-1.11,2.12.1.07,1.21-1.4,1.06-1.4,1.06-2.98-.08-1.9-3.4-6.39-3.44-4.48-.04-5.65,3.51-5.65,3.51,0,0-.08-3.64-3.27-3.51-3.19.13-2.98,2.18-2.98,2.18,0,0-.1,3.42,2.31,2.75,2.41-.67.61-3.22.61-3.22,0,0,.44,1.74-.81,1.7s-1.25-1.15-1.25-1.15c0,0,.08-1.42,2.01-1.57,1.92-.15,2.63,2.43,2.63,2.43,0,0,.66,3.89-3.34,4.01C32.92,7.28,31.79.03,26.14.03c-5.65,0-6.74,5.51-6.74,5.51C17.89,1.24,14.8.05,12.22.13c-2.58.08-6.19,2.17-7.72,2.93s-3.51,1.06-3.67-.76c-.17-1.82,1.74-1.63,1.74-1.63,0,0-.66-.07-.64,1.01.02,1.08,1.04,1.11,1.04,1.11,0,0,1.06-.15,1.06-1.1S3.24.06,2.23.03C1.22,0-.01.65,0,2.22c.01,1.57,1.47,2.09,2.62,2.16,1.15.07,2.87-.94,2.87-.94,0,0-1.7,5.06-2.7,5.12-.99.07-1.33-.98-1.33-.98-.27,1.75.29,1.89,1.31,2.19,1.03.3,1.5-1.03,1.5-1.03,0,0,.27,3.52-.17,5.11-.44,1.58-2.65,2.31-2.83.78-.19-1.53,1.6-1.11,1.6-1.11-3.51-3.24-3.91,3.24-.59,2.8,3.32-.44,2.75-5.81,2.75-5.81Zm11.47-6.41c-1.63.28-3.41-1.19-3.41-1.19,2.73-.49,3.41,1.19,3.41,1.19Z"/>
  <polygon class="cls-1" points="75.84 .48 53.87 .48 54.88 1.14 74.42 1.14 75.84 .48"/>
  <path class="cls-1" d="m124.27,225.95c-.99-1.87-2.65-2.71-4.92-2.8-2.28-.08-4.04,2.11-4.03,4.06.02,1.96,1.04,3.56,3.02,3.59,1.97.03,2.93-1.15,3.05-2.46.12-1.31-1.25-1.33-1.25-1.33,0,0-1.26-.05-1.3,1.11s1.03,1.13,1.03,1.13c-.19,1.11-1.48.89-1.48.89-2.61,0-2.34-3.37-2.34-3.37,1.1.67,1.62.15,1.62.15-1.43-.94-.74-3.1,1.9-3.1s4.75,2.39,4.53,6c-.22,3.61-4.11,5.68-7.31,5.85-3.2.17-4.79-2.49-4.79-2.49,0,0,1.84,2.11,4.2,1.43s1.96-2.85,1.96-2.85c-.59,1.42-1.82.78-1.82.78-1.1-1.26-3.27-.88-3.89-.93s-1.21-.96-1.21-.96c3.13.61,2.7-1.43,2.7-1.43-1.85,1.6-3.47-.74-3.47-.74,0,0,.52-.08.61-1.16.08-1.08-.59-1.13-.59-1.13-.32-.88.42-1.13.42-1.13,1.24-.48,1.72.67,1.72.67.13-2.29-1.57-1.75-1.57-1.75,0,0,1.18-2.93,3.86-2.9,2.68.03,1.43,1.92,1.43,1.92,3.19-1.92-.76-3.17-.76-3.17,0,0,2.61-.25,4.03-.13,1.42.12,1.5,2.31,1.5,2.31,2.6-2.04-.54-3.64-.54-3.64,5.06.27,8.49-2.95,8.6-5.63.1-2.68-.83-3.47-.83-3.47,0,0,.2-.61-.08-1.21-.29-.61-1.21-.51-1.21-.51-1.62-.57-2.8-2.9-2.8-3.59s.54-2.28,2.36-2.46c1.82-.19,1.84,2.17,1.84,2.17-.86-1.25-2.28-.51-2.19.49.08.99.52,1.35,1.25,1.28.72-.07,1.72-.25,1.79-2.02.07-1.77-1.84-2.65-1.84-2.65.72-.56,3.32-2.98.69-3.86-2.63-.88-1.45,2.24-1.45,2.24,0,0-.13-1.24.91-1.44,1.04-.2.93.78.93.78,0,0-.48,1.42-1.84,1.85-1.37.43-3.08,1.82-3.16,3.62-.08,1.79,1.69,3.08,1.69,3.08-.28-.03-1.95.18-1.95.18-3.24,1.39-2.65,2.83-2.93,5.36-.28,2.53-2.65,2.68-2.65,2.68,0,0-1.79.05-1.92-1.64-.13-1.69,1.57-1.49,1.57-1.49-.46.08-.56.86-.56.86,0,0-.13.88.78.88s1.31-.28,1.31-.81.23-1.9-1.72-1.77c-1.95.13-1.92,1.87-1.92,1.87,0,0-.33,2.78,2.38,2.73,2.71-.05,3.24-3.06,3.24-3.06,0,0,.88,1.42,2.38,1.39s2.63-1.16,2.6-2.12c-.03-.96-.3-1.77-1.82-1.95-1.52-.18-1.42,1.62-1.42,1.62.94-.58,1.85-.38,1.82.71-.03,1.09-1.29,1.06-1.29,1.06,0,0-2.86-.63-1.92-3.49.94-2.86,5.44-2.12,5.44-2.12,0,0-.28.68.1,1.29s1.14.33,1.14.33c.83.51.63,2.48.63,2.48-.91,6.19-4.7,4.3-11.83,6.62-7.13,2.33-7.05,7.28-7.05,7.28,0,0-1.06.4-1.09,1.31-.03.91.88,1.29.88,1.29l-.23,2.22c-.23,2.22-2.2,2.76-3.39,2.81-1.19.05-1.01-1.72-1.01-1.72,0,0-.73.15-.68,1.49.05,1.34,1.87,1.74,1.87,1.74-.56.78-2.58.58-2.58.58-3.34,0-4.15-2.5-4.15-4.02s.4-4.25,3.24-4.2c2.83.05,1.79,2.76,1.79,2.76-.05-.83-.96-.78-.96-.78,0,0-.94-.13-.99,1.01-.05,1.14.94,1.09.94,1.09,0,0,1.97.35,2-1.92.03-2.28-2-2.76-2-2.76.61-.23,3.99-1.62,3.99-2.98s-.94-1.72-1.62-1.74c-.68-.03-1.59.48-1.49,1.29.1.81,1.06.88,1.06.88-.51-1.52,1.49-1.72,1.47-.58s-1.52,2.07-4.12,2.58-3.99,2.81-3.99,4.63.68,3.26.68,3.26c0,0-3.87-5.49-6.85-5.64-2.98-.15-3.31,2.83-5.33,2.78-2.02-.05-.81-1.8-.81-1.8,0,0-.88.53-.88,1.52s.71,1.19,1.19,1.24c.48.05,1.42-.13,1.42-.13-.78,1.92-3.16,3.54-5.01,3.54s-3.36-1.29-3.44-2.12c-.08-.83.3-3.64,2.3-3.44s1.54,1.69,1.54,1.69c0,0-.3-.51-.96-.43-.66.08-1.11.63-1.09,1.09.03.46.51.86.88.99s2.2.05,2.02-1.77c-.18-1.82-1.29-2.12-3.11-2.17-1.82-.05-2.22,3.94-2.22,3.94,0,0-1.16-1.01-2.63-1.29-1.47-.28-2.17,1.19-2.17,1.85s-.13,2.07,1.69,1.95c1.82-.13,1.19-1.82,1.19-1.82-.66,1.31-2.06,1.11-2.12-.1-.07-1.21,1.4-1.06,1.4-1.06,2.98.08,1.9,3.4,6.39,3.44,4.48.04,5.65-3.51,5.65-3.51,0,0,.08,3.64,3.27,3.51,3.19-.13,2.98-2.18,2.98-2.18,0,0,.1-3.42-2.31-2.75-2.41.67-.61,3.22-.61,3.22,0,0-.44-1.74.81-1.7s1.25,1.15,1.25,1.15c0,0-.08,1.42-2.01,1.57-1.92.15-2.63-2.43-2.63-2.43,0,0-.66-3.89,3.34-4.01,3.99-.12,5.12,7.13,10.77,7.13s6.74-5.51,6.74-5.51c1.52,4.3,4.6,5.49,7.18,5.41,2.58-.08,6.19-2.17,7.72-2.93s3.51-1.06,3.67.76c.17,1.82-1.74,1.63-1.74,1.63,0,0,.66.07.64-1.01-.02-1.08-1.04-1.11-1.04-1.11,0,0-1.06.15-1.06,1.1s.79,1.63,1.8,1.67c1.01.03,2.24-.62,2.23-2.19-.01-1.57-1.47-2.09-2.62-2.16-1.15-.07-2.87.94-2.87.94,0,0,1.7-5.06,2.7-5.12.99-.07,1.33.98,1.33.98.27-1.75-.29-1.89-1.31-2.19-1.03-.3-1.5,1.03-1.5,1.03,0,0-.27-3.52.17-5.11.44-1.58,2.65-2.31,2.83-.78.19,1.53-1.6,1.11-1.6,1.11,3.51,3.24,3.91-3.24.59-2.8-3.32.44-2.75,5.81-2.75,5.81Zm-11.47,6.41c1.63-.28,3.41,1.19,3.41,1.19-2.73.49-3.41-1.19-3.41-1.19Z"/>
  <path class="cls-1" d="m2.28,220.13c-3.32-.44-2.92,6.03.59,2.8,0,0-1.79.42-1.6-1.11.19-1.53,2.39-.81,2.83.78.44,1.58.17,5.11.17,5.11,0,0-.47-1.33-1.5-1.03-1.03.3-1.58.44-1.31,2.19,0,0,.34-1.04,1.33-.98.99.07,2.7,5.12,2.7,5.12,0,0-1.72-1.01-2.87-.94-1.15.07-2.6.59-2.62,2.16-.01,1.57,1.22,2.22,2.23,2.19,1.01-.03,1.8-.72,1.8-1.67s-1.06-1.1-1.06-1.1c0,0-1.03.03-1.04,1.11-.02,1.08.64,1.01.64,1.01,0,0-1.9.19-1.74-1.63.17-1.82,2.14-1.52,3.67-.76s5.14,2.85,7.72,2.93c2.58.08,5.66-1.11,7.18-5.41,0,0,1.1,5.51,6.74,5.51,5.65,0,6.78-7.25,10.77-7.13,3.99.12,3.34,4.01,3.34,4.01,0,0-.71,2.58-2.63,2.43-1.92-.15-2.01-1.57-2.01-1.57,0,0,0-1.11,1.25-1.15s.81,1.7.81,1.7c0,0,1.8-2.54-.61-3.22-2.41-.67-2.31,2.75-2.31,2.75,0,0-.2,2.04,2.98,2.18,3.19.13,3.27-3.51,3.27-3.51,0,0,1.16,3.55,5.65,3.51,4.48-.04,3.4-3.36,6.39-3.44,0,0,1.47-.15,1.4,1.06-.07,1.21-1.47,1.42-2.12.1,0,0-.63,1.69,1.19,1.82,1.82.13,1.69-1.29,1.69-1.95s-.71-2.12-2.17-1.85c-1.47.28-2.63,1.29-2.63,1.29,0,0-.4-3.99-2.22-3.94-1.82.05-2.93.35-3.11,2.17-.18,1.82,1.64,1.9,2.02,1.77s.86-.53.88-.99c.03-.46-.43-1.01-1.09-1.09-.66-.08-.96.43-.96.43,0,0-.46-1.49,1.54-1.69s2.38,2.6,2.3,3.44c-.08.83-1.59,2.12-3.44,2.12s-4.22-1.62-5.01-3.54c0,0,.94.18,1.42.13.48-.05,1.19-.25,1.19-1.24s-.88-1.52-.88-1.52c0,0,1.21,1.74-.81,1.8-2.02.05-2.35-2.93-5.33-2.78-2.98.15-6.85,5.64-6.85,5.64,0,0,.68-1.44.68-3.26s-1.39-4.12-3.99-4.63-4.1-1.44-4.12-2.58,1.97-.94,1.47.58c0,0,.96-.08,1.06-.88.1-.81-.81-1.31-1.49-1.29-.68.03-1.62.38-1.62,1.74s3.39,2.76,3.99,2.98c0,0-2.02.48-2,2.76.03,2.28,2,1.92,2,1.92,0,0,.99.05.94-1.09-.05-1.14-.99-1.01-.99-1.01,0,0-.91-.05-.96.78,0,0-1.04-2.71,1.79-2.76,2.83-.05,3.24,2.68,3.24,4.2s-.81,4.02-4.15,4.02c0,0-2.02.2-2.58-.58,0,0,1.82-.4,1.87-1.74.05-1.34-.68-1.49-.68-1.49,0,0,.18,1.77-1.01,1.72-1.19-.05-3.16-.58-3.39-2.81l-.23-2.22s.91-.38.88-1.29c-.03-.91-1.09-1.31-1.09-1.31,0,0,.08-4.96-7.05-7.28-7.13-2.33-10.92-.43-11.83-6.62,0,0-.2-1.97.63-2.48,0,0,.76.28,1.14-.33s.1-1.29.1-1.29c0,0,4.5-.73,5.44,2.12.94,2.86-1.92,3.49-1.92,3.49,0,0-1.26.03-1.29-1.06-.03-1.09.88-1.29,1.82-.71,0,0,.1-1.79-1.42-1.62-1.52.18-1.79.99-1.82,1.95-.03.96,1.11,2.1,2.6,2.12s2.38-1.39,2.38-1.39c0,0,.53,3.01,3.24,3.06,2.71.05,2.38-2.73,2.38-2.73,0,0,.03-1.74-1.92-1.87-1.95-.13-1.72,1.24-1.72,1.77s.4.81,1.31.81.78-.88.78-.88c0,0-.1-.78-.56-.86,0,0,1.69-.2,1.57,1.49-.13,1.69-1.92,1.64-1.92,1.64,0,0-2.38-.15-2.65-2.68-.28-2.53.3-3.97-2.93-5.36,0,0-1.67-.2-1.95-.18,0,0,1.77-1.29,1.69-3.08-.08-1.79-1.79-3.19-3.16-3.62-1.37-.43-1.84-1.85-1.84-1.85,0,0-.1-.99.93-.78,1.04.2.91,1.44.91,1.44,0,0,1.18-3.12-1.45-2.24-2.63.88-.03,3.3.69,3.86,0,0-1.92.88-1.84,2.65.07,1.77,1.07,1.96,1.79,2.02.72.07,1.16-.29,1.25-1.28.08-.99-1.33-1.74-2.19-.49,0,0,.02-2.36,1.84-2.17,1.82.19,2.36,1.77,2.36,2.46s-1.18,3.02-2.8,3.59c0,0-.93-.1-1.21.51-.29.61-.08,1.21-.08,1.21,0,0-.93.79-.83,3.47.1,2.68,3.54,5.9,8.6,5.63,0,0-3.13,1.6-.54,3.64,0,0,.08-2.19,1.5-2.31,1.42-.12,4.03.13,4.03.13,0,0-3.94,1.25-.76,3.17,0,0-1.25-1.89,1.43-1.92,2.68-.03,3.86,2.9,3.86,2.9,0,0-1.7-.54-1.57,1.75,0,0,.48-1.16,1.72-.67,0,0,.74.25.42,1.13,0,0-.67.05-.59,1.13.08,1.08.61,1.16.61,1.16,0,0-1.62,2.34-3.47.74,0,0-.44,2.04,2.7,1.43,0,0-.59.91-1.21.96s-2.8-.34-3.89.93c0,0-1.23.64-1.82-.78,0,0-.4,2.17,1.96,2.85s4.2-1.43,4.2-1.43c0,0-1.58,2.66-4.79,2.49-3.2-.17-7.1-2.24-7.31-5.85-.22-3.61,1.89-6,4.53-6s3.34,2.16,1.9,3.1c0,0,.52.52,1.62-.15,0,0,.27,3.37-2.34,3.37,0,0-1.3.22-1.48-.89,0,0,1.06.03,1.03-1.13s-1.3-1.11-1.3-1.11c0,0-1.37.02-1.25,1.33.12,1.31,1.08,2.49,3.05,2.46,1.97-.03,3-1.63,3.02-3.59.02-1.96-1.75-4.15-4.03-4.06-2.28.08-3.93.93-4.92,2.8,0,0,.57-5.38-2.75-5.81Zm10.8,13.41s1.78-1.47,3.41-1.19c0,0-.68,1.68-3.41,1.19Z"/>
  <polygon class="cls-1" points="75.84 235.96 53.87 235.96 54.88 235.3 74.42 235.3 75.84 235.96"/>
  <polygon class="cls-1" points="129.28 198.1 129.28 38.25 128.38 39.09 128.38 197.37 129.28 198.1"/>
  <polygon class="cls-1" points=".01 38.29 .01 198.14 .92 197.3 .92 39.03 .01 38.29"/>
</svg>